0
SECTION
2
HEADER
9
$INSUNITS
70
4
9
$ACADVER
1
AC1014
9
$HANDSEED
5
FFFF
0
ENDSEC
0
SECTION
2
TABLES
0
TABLE
2
VPORT
5
8
100
AcDbSymbolTable
0
ENDTAB
0
TABLE
2
LTYPE
5
5
100
AcDbSymbolTable
0
LTYPE
5
14
100
AcDbSymbolTableRecord
100
AcDbLinetypeTableRecord
2
BYBLOCK
70
0
0
LTYPE
5
15
100
AcDbSymbolTableRecord
100
AcDbLinetypeTableRecord
2
BYLAYER
70
0
0
LTYPE
5
16
100
AcDbSymbolTableRecord
100
AcDbLinetypeTableRecord
2
DASHED
70
0
3
Dashed __ __ __ __ __ __ __ __ __ __ __ __ __ _
72
65
73
2
40
0.75
49
0.5
74
0
49
-0.25
74
0
0
ENDTAB
0
TABLE
2
LAYER
5
2
100
AcDbSymbolTable
70
2
0
LAYER
5
50
100
AcDbSymbolTableRecord
100
AcDbLayerTableRecord
2
0
70
0
62
7
6
CONTINUOUS
0
ENDTAB
0
TABLE
2
STYLE
5
3
100
AcDbSymbolTable
70
1
0
STYLE
5
11
100
AcDbSymbolTableRecord
100
AcDbTextStyleTableRecord
2
STANDARD
70
0
0
ENDTAB
0
TABLE
2
VIEW
5
6
100
AcDbSymbolTable
70
0
0
ENDTAB
0
TABLE
2
UCS
5
7
100
AcDbSymbolTable
70
0
0
ENDTAB
0
TABLE
2
APPID
5
9
100
AcDbSymbolTable
70
2
0
APPID
5
12
100
AcDbSymbolTableRecord
100
AcDbRegAppTableRecord
2
ACAD
70
0
0
ENDTAB
0
TABLE
2
DIMSTYLE
5
A
100
AcDbSymbolTable
70
1
0
ENDTAB
0
TABLE
2
BLOCK_RECORD
5
1
100
AcDbSymbolTable
70
1
0
BLOCK_RECORD
5
1F
100
AcDbSymbolTableRecord
100
AcDbBlockTableRecord
2
*MODEL_SPACE
0
BLOCK_RECORD
5
1B
100
AcDbSymbolTableRecord
100
AcDbBlockTableRecord
2
*PAPER_SPACE
0
ENDTAB
0
ENDSEC
0
SECTION
2
BLOCKS
0
BLOCK
5
20
100
AcDbEntity
100
AcDbBlockBegin
2
*MODEL_SPACE
0
ENDBLK
5
21
100
AcDbEntity
100
AcDbBlockEnd
0
BLOCK
5
1C
100
AcDbEntity
100
AcDbBlockBegin
2
*PAPER_SPACE
0
ENDBLK
5
1D
100
AcDbEntity
100
AcDbBlockEnd
0
ENDSEC
0
SECTION
2
ENTITIES
0
POINT
5
100
100
AcDbEntity
8
0
100
AcDbPoint
10
-2.9802321721561498e-08
20
0
30
0
0
LINE
5
101
100
AcDbEntity
8
0
100
AcDbLine
10
-1.0000000447034829
20
21.000000312924385
30
0
11
-10.644642826992206
21
18.129853636829509
31
0
0
LINE
5
102
100
AcDbEntity
8
0
100
AcDbLine
10
-10.644642826992206
20
18.129853636829509
30
0
11
-17.850726226296807
21
11.106375980958511
31
0
0
LINE
5
103
100
AcDbEntity
8
0
100
AcDbLine
10
-17.850726226296807
20
11.106375980958511
30
0
11
-20.967423378555729
21
1.5385614341900833
31
0
0
LINE
5
104
100
AcDbEntity
8
0
100
AcDbLine
10
-20.967423378555729
20
1.5385614341900833
30
0
11
-19.280736526458853
21
-8.3817189954760032
31
0
0
LINE
5
105
100
AcDbEntity
8
0
100
AcDbLine
10
-19.280736526458853
20
-8.3817189954760032
30
0
11
-16.915403410759701
21
-11.481979612011827
31
0
0
LINE
5
106
100
AcDbEntity
8
0
100
AcDbLine
10
-13.177065301041493
20
-16.381848613942477
30
0
11
-4.0546872228345334
21
-20.629094137632098
31
0
0
LINE
5
107
100
AcDbEntity
8
0
100
AcDbLine
10
-4.0546872228345334
20
-20.629094137632098
30
0
11
5.9965708270183047
21
-20.150462801924824
31
0
0
LINE
5
108
100
AcDbEntity
8
0
100
AcDbLine
10
5.9965708270183047
20
-20.150462801924824
30
0
11
14.674086760086404
21
-15.0556032776983
31
0
0
LINE
5
109
100
AcDbEntity
8
0
100
AcDbLine
10
14.674086760086404
20
-15.0556032776983
30
0
11
19.98994625150733
21
-6.5116864822395284
31
0
0
LINE
5
110
100
AcDbEntity
8
0
100
AcDbLine
10
19.98994625150733
20
-6.5116864822395284
30
0
11
20.726349954848168
21
3.523979211971211
31
0
0
LINE
5
111
100
AcDbEntity
8
0
100
AcDbLine
10
20.726349954848168
20
3.523979211971211
30
0
11
16.714596656300206
21
12.752343737272646
31
0
0
LINE
5
112
100
AcDbEntity
8
0
100
AcDbLine
10
16.714596656300206
20
12.752343737272646
30
0
11
8.8737306896925041
21
19.059299994766867
31
0
0
LINE
5
113
100
AcDbEntity
8
0
100
AcDbLine
10
8.8737306896925041
20
19.059299994766867
30
0
11
-1.0000000447034829
21
21.000000312924385
31
0
0
LINE
5
114
100
AcDbEntity
8
0
100
AcDbLine
10
-16.915403410759701
20
-11.481979612011827
30
0
11
-17.538266131273069
21
-3.3461231741183761
31
0
0
LINE
5
115
100
AcDbEntity
8
0
100
AcDbLine
10
-17.538266131273069
20
-3.3461231741183761
30
0
11
-14.25066557652328
21
2.4619711392729071
31
0
0
LINE
5
116
100
AcDbEntity
8
0
100
AcDbLine
10
-14.25066557652328
20
2.4619711392729071
30
0
11
-9.0000001639127731
21
8.0000001192092896
31
0
0
LINE
5
117
100
AcDbEntity
8
0
100
AcDbLine
10
-9.0000001639127731
20
8.0000001192092896
30
0
11
0.43395023469241845
21
9.5851056745641081
31
0
0
LINE
5
118
100
AcDbEntity
8
0
100
AcDbLine
10
0.43395023469241845
20
9.5851056745641081
30
0
11
7.2283247145086351
21
5.2309856292410988
31
0
0
LINE
5
119
100
AcDbEntity
8
0
100
AcDbLine
10
7.2283247145086351
20
5.2309856292410988
30
0
11
11.392618750525028
21
-2.6886030631684177
31
0
0
LINE
5
120
100
AcDbEntity
8
0
100
AcDbLine
10
11.392618750525028
20
-2.6886030631684177
30
0
11
11.392618750525028
21
-11.000000163912773
31
0
0
LINE
5
121
100
AcDbEntity
8
0
100
AcDbLine
10
11.392618750525028
20
-11.000000163912773
30
0
11
6.0000000596046457
21
-17.00000025331974
31
0
0
LINE
5
122
100
AcDbEntity
8
0
100
AcDbLine
10
6.0000000596046457
20
-17.00000025331974
30
0
11
-1.0000000447034829
21
-18.000000268220901
31
0
0
LINE
5
123
100
AcDbEntity
8
0
100
AcDbLine
10
-1.0000000447034829
20
-18.000000268220901
30
0
11
-12.442507935104983
21
-16.723847756887483
31
0
0
ENDSEC
0
SECTION
2
OBJECTS
0
DICTIONARY
5
C
100
AcDbDictionary
3
ACAD_GROUP
350
D
3
ACAD_MLINESTYLE
350
17
0
DICTIONARY
5
D
100
AcDbDictionary
0
DICTIONARY
5
1A
330
C
100
AcDbDictionary
0
DICTIONARY
5
17
100
AcDbDictionary
0
ENDSEC
0
EOF
