0
SECTION
2
HEADER
9
$INSUNITS
70
4
9
$ACADVER
1
AC1014
9
$HANDSEED
5
FFFF
0
ENDSEC
0
SECTION
2
TABLES
0
TABLE
2
VPORT
5
8
100
AcDbSymbolTable
0
ENDTAB
0
TABLE
2
LTYPE
5
5
100
AcDbSymbolTable
0
LTYPE
5
14
100
AcDbSymbolTableRecord
100
AcDbLinetypeTableRecord
2
BYBLOCK
70
0
0
LTYPE
5
15
100
AcDbSymbolTableRecord
100
AcDbLinetypeTableRecord
2
BYLAYER
70
0
0
LTYPE
5
16
100
AcDbSymbolTableRecord
100
AcDbLinetypeTableRecord
2
DASHED
70
0
3
Dashed __ __ __ __ __ __ __ __ __ __ __ __ __ _
72
65
73
2
40
0.75
49
0.5
74
0
49
-0.25
74
0
0
ENDTAB
0
TABLE
2
LAYER
5
2
100
AcDbSymbolTable
70
2
0
LAYER
5
50
100
AcDbSymbolTableRecord
100
AcDbLayerTableRecord
2
0
70
0
62
7
6
CONTINUOUS
0
ENDTAB
0
TABLE
2
STYLE
5
3
100
AcDbSymbolTable
70
1
0
STYLE
5
11
100
AcDbSymbolTableRecord
100
AcDbTextStyleTableRecord
2
STANDARD
70
0
0
ENDTAB
0
TABLE
2
VIEW
5
6
100
AcDbSymbolTable
70
0
0
ENDTAB
0
TABLE
2
UCS
5
7
100
AcDbSymbolTable
70
0
0
ENDTAB
0
TABLE
2
APPID
5
9
100
AcDbSymbolTable
70
2
0
APPID
5
12
100
AcDbSymbolTableRecord
100
AcDbRegAppTableRecord
2
ACAD
70
0
0
ENDTAB
0
TABLE
2
DIMSTYLE
5
A
100
AcDbSymbolTable
70
1
0
ENDTAB
0
TABLE
2
BLOCK_RECORD
5
1
100
AcDbSymbolTable
70
1
0
BLOCK_RECORD
5
1F
100
AcDbSymbolTableRecord
100
AcDbBlockTableRecord
2
*MODEL_SPACE
0
BLOCK_RECORD
5
1B
100
AcDbSymbolTableRecord
100
AcDbBlockTableRecord
2
*PAPER_SPACE
0
ENDTAB
0
ENDSEC
0
SECTION
2
BLOCKS
0
BLOCK
5
20
100
AcDbEntity
100
AcDbBlockBegin
2
*MODEL_SPACE
0
ENDBLK
5
21
100
AcDbEntity
100
AcDbBlockEnd
0
BLOCK
5
1C
100
AcDbEntity
100
AcDbBlockBegin
2
*PAPER_SPACE
0
ENDBLK
5
1D
100
AcDbEntity
100
AcDbBlockEnd
0
ENDSEC
0
SECTION
2
ENTITIES
0
LINE
5
100
100
AcDbEntity
8
0
100
AcDbLine
10
34.821428571428584
20
23.214285714285715
30
0
11
33.928571428571431
21
24.107142857142854
31
0
0
LWPOLYLINE
5
101
100
AcDbEntity
8
0
100
AcDbPolyline
90
82
70
1
43
0.0
10
45.91620431832596
20
19.791467378588774
10
46.478895166132901
20
18.43128601415615
10
46.849010239315959
20
17.469122462117813
10
47.19291781830087
20
16.517521236405305
10
47.667111267537187
20
15.094585234720109
10
48.106336315769191
20
13.630128622801275
10
48.363981219566583
20
12.685634418246972
10
48.597938702219601
20
11.757565815053132
10
48.935847486276352
20
10.260742214864397
10
49.231163302332028
20
8.7345612310589065
10
49.48138683699257
20
7.1827819602085983
10
49.684336212073099
20
5.6095218303953498
10
49.838197750592251
20
4.0192094960155043
10
49.941569804100006
20
2.4165275711661298
10
49.993497626606228
20
0.80634673591300376
10
49.993497626606228
20
-0.80634673591300376
10
49.941569804100006
20
-2.4165275711661298
10
49.838197750592251
20
-4.0192094960155043
10
49.684336212073099
20
-5.6095218303953498
10
49.48138683699257
20
-7.1827819602085983
10
49.231163302332028
20
-8.7345612310589065
10
48.935847486276352
20
-10.260742214864397
10
48.597938702219601
20
-11.757565815053132
10
48.363981219566583
20
-12.685634418246972
10
48.106336315769191
20
-13.630128622801275
10
47.667111267537187
20
-15.094585234720109
10
47.19291781830087
20
-16.517521236405305
10
46.849010239315959
20
-17.469122462117813
10
46.478895166132901
20
-18.43128601415615
10
45.91620431832596
20
-19.791467378588774
10
45.490952414654473
20
-20.75025899615818
10
45.038434068444758
20
-21.714959283000148
10
44.399720463864405
20
-22.992712383072643
10
43.894778645719228
20
-23.942606534028666
10
43.362654841740365
20
-24.893375927665772
10
42.664091682597949
20
-26.072500472698742
10
42.08470411328382
20
-26.997734714182076
10
41.479387380970749
20
-27.918818429499549
10
40.848393163238079
20
-28.83415987993277
10
40.192094960155046
20
-29.742150270514731
10
39.425115300889551
20
-30.751589934693861
10
38.733060007125971
20
-31.618824495613037
10
38.018683909669171
20
-32.474292506175757
10
37.282805030858945
20
-33.316549176512254
10
36.526346966246344
20
-34.144193903230274
10
35.750333450652889
20
-34.955881596193933
42
0.57057582619923852
10
13.382193189304733
20
48.175895481497044
10
14.285714285714285
20
47.321428571428577
10
15.178571428571427
20
46.428571428571431
10
16.964285714285715
20
46.428571428571431
10
18.723152480064162
20
46.362091855396976
10
19.642857142857142
20
45.535714285714299
10
20.535714285714292
20
44.642857142857153
10
22.321428571428577
20
44.642857142857153
10
23.757445736744202
20
43.995269882859624
10
24.806946917841692
20
43.412157106222971
10
25.855781996279088
20
42.795777097289516
10
27.126271573783232
20
42.001968888438554
10
28.139548854101086
20
41.329962379460966
10
29.145393772586537
20
40.626912531484265
10
30.276091624163112
20
39.791434706042963
10
31.234752377721215
20
39.043440472151524
10
32.179996793753574
20
38.26810429527454
10
33.165375715792592
20
37.41734696140702
10
34.086279961512339
20
36.580398007476653
10
34.946647390050046
20
35.759360120051205
10
35.750333450652889
20
34.955881596193926
10
36.526346966246344
20
34.144193903230274
10
37.282805030858945
20
33.316549176512254
10
38.018683909669171
20
32.474292506175757
10
38.733060007125971
20
31.618824495613037
10
39.425115300889551
20
30.751589934693861
10
40.192094960155046
20
29.742150270514731
10
40.848393163238079
20
28.83415987993277
10
41.479387380970749
20
27.918818429499549
10
42.08470411328382
20
26.997734714182076
10
42.664091682597949
20
26.072500472698742
10
43.362654841740365
20
24.893375927665772
10
43.894778645719228
20
23.942606534028666
10
44.399720463864405
20
22.992712383072643
10
45.038434068444758
20
21.714959283000148
10
45.490952414654473
20
20.75025899615818
0
LINE
5
102
100
AcDbEntity
8
0
100
AcDbLine
10
-41.071428571428584
20
0.8928571428571429
30
0
11
-41.071428571428584
21
2.6785714285714297
31
0
0
LINE
5
103
100
AcDbEntity
8
0
100
AcDbLine
10
-16.071428571428573
20
-16.964285714285715
30
0
11
-16.071428571428573
21
-18.75
31
0
0
LINE
5
104
100
AcDbEntity
8
0
100
AcDbLine
10
-27.678571428571431
20
-21.428571428571431
30
0
11
-29.464285714285715
21
-21.428571428571431
31
0
0
LINE
5
105
100
AcDbEntity
8
0
100
AcDbLine
10
-19.642857142857142
20
-24.107142857142854
30
0
11
-20.535714285714292
21
-25
31
0
0
LINE
5
106
100
AcDbEntity
8
0
100
AcDbLine
10
-39.285714285714285
20
9.8214285714285712
30
0
11
-39.285714285714285
21
11.607142857142858
31
0
0
LINE
5
107
100
AcDbEntity
8
0
100
AcDbLine
10
-35.714285714285715
20
-13.392857142857144
30
0
11
-36.607142857142861
21
-12.5
31
0
0
LINE
5
108
100
AcDbEntity
8
0
100
AcDbLine
10
-39.285714285714285
20
15.178571428571427
30
0
11
-38.392857142857146
21
16.071428571428573
31
0
0
LINE
5
109
100
AcDbEntity
8
0
100
AcDbLine
10
-22.321428571428577
20
-25
30
0
11
-24.107142857142854
21
-25
31
0
0
LINE
5
110
100
AcDbEntity
8
0
100
AcDbLine
10
-24.107142857142854
20
-25
30
0
11
-25
21
-24.107142857142854
31
0
0
LINE
5
111
100
AcDbEntity
8
0
100
AcDbLine
10
-33.928571428571431
20
-15.178571428571427
30
0
11
-34.821428571428584
21
-14.285714285714285
31
0
0
LINE
5
112
100
AcDbEntity
8
0
100
AcDbLine
10
-41.071428571428584
20
2.6785714285714297
30
0
11
-41.071428571428584
21
4.4642857142857144
31
0
0
LINE
5
113
100
AcDbEntity
8
0
100
AcDbLine
10
-29.464285714285715
20
-21.428571428571431
30
0
11
-30.357142857142854
21
-20.535714285714292
31
0
0
LINE
5
114
100
AcDbEntity
8
0
100
AcDbLine
10
-39.285714285714285
20
11.607142857142858
30
0
11
-39.285714285714285
21
13.392857142857144
31
0
0
LINE
5
115
100
AcDbEntity
8
0
100
AcDbLine
10
-25
20
-24.107142857142854
30
0
11
-25.892857142857149
21
-23.214285714285715
31
0
0
LINE
5
116
100
AcDbEntity
8
0
100
AcDbLine
10
-39.285714285714285
20
-2.6785714285714297
30
0
11
-40.178571428571431
21
-1.7857142857142858
31
0
0
LINE
5
117
100
AcDbEntity
8
0
100
AcDbLine
10
-16.071428571428573
20
-18.75
30
0
11
-16.964285714285715
21
-19.642857142857142
31
0
0
LINE
5
118
100
AcDbEntity
8
0
100
AcDbLine
10
-41.071428571428584
20
4.4642857142857144
30
0
11
-41.071428571428584
21
6.25
31
0
0
LINE
5
119
100
AcDbEntity
8
0
100
AcDbLine
10
-39.285714285714285
20
13.392857142857144
30
0
11
-39.285714285714285
21
15.178571428571427
31
0
0
LINE
5
120
100
AcDbEntity
8
0
100
AcDbLine
10
-38.392857142857146
20
-8.9285714285714288
30
0
11
-39.285714285714285
21
-8.0357142857142865
31
0
0
LINE
5
121
100
AcDbEntity
8
0
100
AcDbLine
10
-15.178571428571427
20
-14.285714285714285
30
0
11
-16.071428571428573
21
-15.178571428571427
31
0
0
LINE
5
122
100
AcDbEntity
8
0
100
AcDbLine
10
-37.5
20
16.964285714285715
30
0
11
-37.5
21
18.75
31
0
0
LINE
5
123
100
AcDbEntity
8
0
100
AcDbLine
10
-20.535714285714292
20
-25
30
0
11
-22.321428571428577
21
-25
31
0
0
LINE
5
124
100
AcDbEntity
8
0
100
AcDbLine
10
-26.785714285714288
20
-22.321428571428577
30
0
11
-27.678571428571431
21
-21.428571428571431
31
0
0
LINE
5
125
100
AcDbEntity
8
0
100
AcDbLine
10
-36.607142857142861
20
-12.5
30
0
11
-37.5
21
-11.607142857142858
31
0
0
LINE
5
126
100
AcDbEntity
8
0
100
AcDbLine
10
-40.178571428571431
20
8.9285714285714288
30
0
11
-39.285714285714285
21
9.8214285714285712
31
0
0
LINE
5
127
100
AcDbEntity
8
0
100
AcDbLine
10
-38.392857142857146
20
16.071428571428573
30
0
11
-37.5
21
16.964285714285715
31
0
0
LINE
5
128
100
AcDbEntity
8
0
100
AcDbLine
10
-40.178571428571431
20
-1.7857142857142858
30
0
11
-41.071428571428584
21
-0.8928571428571429
31
0
0
LINE
5
129
100
AcDbEntity
8
0
100
AcDbLine
10
-16.071428571428573
20
-15.178571428571427
30
0
11
-16.071428571428573
21
-16.964285714285715
31
0
0
LINE
5
130
100
AcDbEntity
8
0
100
AcDbLine
10
-16.964285714285715
20
-19.642857142857142
30
0
11
-17.857142857142858
21
-20.535714285714292
31
0
0
LINE
5
131
100
AcDbEntity
8
0
100
AcDbLine
10
-39.285714285714285
20
-8.0357142857142865
30
0
11
-39.285714285714285
21
-6.25
31
0
0
LINE
5
132
100
AcDbEntity
8
0
100
AcDbLine
10
-39.285714285714285
20
-4.4642857142857144
30
0
11
-39.285714285714285
21
-2.6785714285714297
31
0
0
LINE
5
133
100
AcDbEntity
8
0
100
AcDbLine
10
-34.821428571428584
20
-14.285714285714285
30
0
11
-35.714285714285715
21
-13.392857142857144
31
0
0
LINE
5
134
100
AcDbEntity
8
0
100
AcDbLine
10
-14.285714285714285
20
-13.392857142857144
30
0
11
-15.178571428571427
21
-14.285714285714285
31
0
0
LINE
5
135
100
AcDbEntity
8
0
100
AcDbLine
10
-18.75
20
-23.214285714285715
30
0
11
-19.642857142857142
21
-24.107142857142854
31
0
0
LINE
5
136
100
AcDbEntity
8
0
100
AcDbLine
10
-37.5
20
18.75
30
0
11
-36.607142857142861
21
19.642857142857142
31
0
0
LINE
5
137
100
AcDbEntity
8
0
100
AcDbLine
10
-17.857142857142858
20
-22.321428571428577
30
0
11
-18.75
21
-23.214285714285715
31
0
0
LINE
5
138
100
AcDbEntity
8
0
100
AcDbLine
10
-32.142857142857146
20
-18.75
30
0
11
-33.035714285714285
21
-17.857142857142858
31
0
0
LINE
5
139
100
AcDbEntity
8
0
100
AcDbLine
10
-31.25
20
-19.642857142857142
30
0
11
-32.142857142857146
21
-18.75
31
0
0
LINE
5
140
100
AcDbEntity
8
0
100
AcDbLine
10
-30.357142857142854
20
-20.535714285714292
30
0
11
-31.25
21
-19.642857142857142
31
0
0
LINE
5
141
100
AcDbEntity
8
0
100
AcDbLine
10
-37.5
20
-11.607142857142858
30
0
11
-37.5
21
-9.8214285714285712
31
0
0
LINE
5
142
100
AcDbEntity
8
0
100
AcDbLine
10
-41.071428571428584
20
-0.8928571428571429
30
0
11
-41.071428571428584
21
0.8928571428571429
31
0
0
LINE
5
143
100
AcDbEntity
8
0
100
AcDbLine
10
-37.5
20
-9.8214285714285712
30
0
11
-38.392857142857146
21
-8.9285714285714288
31
0
0
LINE
5
144
100
AcDbEntity
8
0
100
AcDbLine
10
-25.892857142857149
20
-23.214285714285715
30
0
11
-26.785714285714288
21
-22.321428571428577
31
0
0
LINE
5
145
100
AcDbEntity
8
0
100
AcDbLine
10
-17.857142857142858
20
-20.535714285714292
30
0
11
-17.857142857142858
21
-22.321428571428577
31
0
0
LINE
5
146
100
AcDbEntity
8
0
100
AcDbLine
10
-41.071428571428584
20
8.0357142857142865
30
0
11
-40.178571428571431
21
8.9285714285714288
31
0
0
LINE
5
147
100
AcDbEntity
8
0
100
AcDbLine
10
-39.285714285714285
20
-6.25
30
0
11
-39.285714285714285
21
-4.4642857142857144
31
0
0
LINE
5
148
100
AcDbEntity
8
0
100
AcDbLine
10
-33.035714285714285
20
-17.857142857142858
30
0
11
-33.928571428571431
21
-16.964285714285715
31
0
0
LINE
5
149
100
AcDbEntity
8
0
100
AcDbLine
10
-33.928571428571431
20
-16.964285714285715
30
0
11
-33.928571428571431
21
-15.178571428571427
31
0
0
LINE
5
150
100
AcDbEntity
8
0
100
AcDbLine
10
-41.071428571428584
20
6.25
30
0
11
-41.071428571428584
21
8.0357142857142865
31
0
0
LINE
5
151
100
AcDbEntity
8
0
100
AcDbLine
10
-8.9285714285714288
20
-9.8214285714285712
30
0
11
-9.8214285714285712
21
-10.714285714285719
31
0
0
LINE
5
152
100
AcDbEntity
8
0
100
AcDbLine
10
7.1428571428571423
20
-16.964285714285715
30
0
11
6.25
21
-17.857142857142858
31
0
0
LINE
5
153
100
AcDbEntity
8
0
100
AcDbLine
10
4.4642857142857144
20
0
30
0
11
3.5714285714285716
21
-0.8928571428571429
31
0
0
LINE
5
154
100
AcDbEntity
8
0
100
AcDbLine
10
-1.7857142857142858
20
-8.0357142857142865
30
0
11
-0.8928571428571429
21
-7.1428571428571423
31
0
0
LINE
5
155
100
AcDbEntity
8
0
100
AcDbLine
10
7.1428571428571423
20
-15.178571428571427
30
0
11
7.1428571428571423
21
-16.964285714285715
31
0
0
LINE
5
156
100
AcDbEntity
8
0
100
AcDbLine
10
7.1428571428571423
20
-8.0357142857142865
30
0
11
7.1428571428571423
21
-9.8214285714285712
31
0
0
LINE
5
157
100
AcDbEntity
8
0
100
AcDbLine
10
-8.0357142857142865
20
-8.9285714285714288
30
0
11
-8.9285714285714288
21
-9.8214285714285712
31
0
0
LINE
5
158
100
AcDbEntity
8
0
100
AcDbLine
10
7.1428571428571423
20
-13.392857142857144
30
0
11
7.1428571428571423
21
-15.178571428571427
31
0
0
LINE
5
159
100
AcDbEntity
8
0
100
AcDbLine
10
2.6785714285714297
20
-17.857142857142858
30
0
11
0.89285714285714279
21
-17.857142857142858
31
0
0
LINE
5
160
100
AcDbEntity
8
0
100
AcDbLine
10
-5.3571428571428594
20
-6.25
30
0
11
-6.25
21
-7.1428571428571423
31
0
0
LINE
5
161
100
AcDbEntity
8
0
100
AcDbLine
10
0.89285714285714279
20
-17.857142857142858
30
0
11
0
21
-16.964285714285715
31
0
0
LINE
5
162
100
AcDbEntity
8
0
100
AcDbLine
10
10.714285714285719
20
2.6785714285714297
30
0
11
9.8214285714285712
21
1.7857142857142858
31
0
0
LINE
5
163
100
AcDbEntity
8
0
100
AcDbLine
10
0
20
-16.964285714285715
30
0
11
-0.8928571428571429
21
-16.071428571428573
31
0
0
LINE
5
164
100
AcDbEntity
8
0
100
AcDbLine
10
7.1428571428571423
20
-4.4642857142857144
30
0
11
7.1428571428571423
21
-6.25
31
0
0
LINE
5
165
100
AcDbEntity
8
0
100
AcDbLine
10
10.714285714285719
20
6.25
30
0
11
10.714285714285719
21
4.4642857142857144
31
0
0
LINE
5
166
100
AcDbEntity
8
0
100
AcDbLine
10
-0.8928571428571429
20
-7.1428571428571423
30
0
11
0
21
-6.25
31
0
0
LINE
5
167
100
AcDbEntity
8
0
100
AcDbLine
10
0
20
-2.6785714285714297
30
0
11
-0.8928571428571429
21
-1.7857142857142858
31
0
0
LINE
5
168
100
AcDbEntity
8
0
100
AcDbLine
10
4.4642857142857144
20
-1.7857142857142858
30
0
11
6.25
21
-1.7857142857142858
31
0
0
LINE
5
169
100
AcDbEntity
8
0
100
AcDbLine
10
6.25
20
0
30
0
11
4.4642857142857144
21
0
31
0
0
LINE
5
170
100
AcDbEntity
8
0
100
AcDbLine
10
0
20
-6.25
30
0
11
0
21
-4.4642857142857144
31
0
0
LINE
5
171
100
AcDbEntity
8
0
100
AcDbLine
10
-1.7857142857142858
20
-15.178571428571427
30
0
11
-1.7857142857142858
21
-13.392857142857144
31
0
0
LINE
5
172
100
AcDbEntity
8
0
100
AcDbLine
10
6.25
20
-17.857142857142858
30
0
11
4.4642857142857144
21
-17.857142857142858
31
0
0
LINE
5
173
100
AcDbEntity
8
0
100
AcDbLine
10
-3.5714285714285716
20
-4.4642857142857144
30
0
11
-4.4642857142857144
21
-5.3571428571428594
31
0
0
LINE
5
174
100
AcDbEntity
8
0
100
AcDbLine
10
7.1428571428571423
20
6.25
30
0
11
8.0357142857142865
21
7.1428571428571423
31
0
0
LINE
5
175
100
AcDbEntity
8
0
100
AcDbLine
10
-1.7857142857142858
20
-9.8214285714285712
30
0
11
-1.7857142857142858
21
-8.0357142857142865
31
0
0
LINE
5
176
100
AcDbEntity
8
0
100
AcDbLine
10
-11.607142857142858
20
-12.5
30
0
11
-13.392857142857144
21
-12.5
31
0
0
LINE
5
177
100
AcDbEntity
8
0
100
AcDbLine
10
4.4642857142857144
20
-17.857142857142858
30
0
11
2.6785714285714297
21
-17.857142857142858
31
0
0
LINE
5
178
100
AcDbEntity
8
0
100
AcDbLine
10
7.1428571428571423
20
0.8928571428571429
30
0
11
6.25
21
0
31
0
0
LINE
5
179
100
AcDbEntity
8
0
100
AcDbLine
10
-9.8214285714285712
20
-10.714285714285719
30
0
11
-10.714285714285719
21
-11.607142857142858
31
0
0
LINE
5
180
100
AcDbEntity
8
0
100
AcDbLine
10
0
20
-4.4642857142857144
30
0
11
0
21
-2.6785714285714297
31
0
0
LINE
5
181
100
AcDbEntity
8
0
100
AcDbLine
10
-0.8928571428571429
20
-1.7857142857142858
30
0
11
-1.7857142857142858
21
-2.6785714285714297
31
0
0
LINE
5
182
100
AcDbEntity
8
0
100
AcDbLine
10
10.714285714285719
20
4.4642857142857144
30
0
11
10.714285714285719
21
2.6785714285714297
31
0
0
LINE
5
183
100
AcDbEntity
8
0
100
AcDbLine
10
7.1428571428571423
20
-6.25
30
0
11
7.1428571428571423
21
-8.0357142857142865
31
0
0
LINE
5
184
100
AcDbEntity
8
0
100
AcDbLine
10
3.5714285714285716
20
-0.8928571428571429
30
0
11
4.4642857142857144
21
-1.7857142857142858
31
0
0
LINE
5
185
100
AcDbEntity
8
0
100
AcDbLine
10
6.25
20
-1.7857142857142858
30
0
11
7.1428571428571423
21
-2.6785714285714297
31
0
0
LINE
5
186
100
AcDbEntity
8
0
100
AcDbLine
10
-4.4642857142857144
20
-5.3571428571428594
30
0
11
-5.3571428571428594
21
-6.25
31
0
0
LINE
5
187
100
AcDbEntity
8
0
100
AcDbLine
10
-0.8928571428571429
20
-16.071428571428573
30
0
11
-1.7857142857142858
21
-15.178571428571427
31
0
0
LINE
5
188
100
AcDbEntity
8
0
100
AcDbLine
10
9.8214285714285712
20
1.7857142857142858
30
0
11
8.0357142857142865
21
1.7857142857142858
31
0
0
LINE
5
189
100
AcDbEntity
8
0
100
AcDbLine
10
8.0357142857142865
20
7.1428571428571423
30
0
11
9.8214285714285712
21
7.1428571428571423
31
0
0
LINE
5
190
100
AcDbEntity
8
0
100
AcDbLine
10
9.8214285714285712
20
7.1428571428571423
30
0
11
10.714285714285719
21
6.25
31
0
0
LINE
5
191
100
AcDbEntity
8
0
100
AcDbLine
10
7.1428571428571423
20
-9.8214285714285712
30
0
11
7.1428571428571423
21
-11.607142857142858
31
0
0
LINE
5
192
100
AcDbEntity
8
0
100
AcDbLine
10
8.0357142857142865
20
1.7857142857142858
30
0
11
7.1428571428571423
21
0.8928571428571429
31
0
0
LINE
5
193
100
AcDbEntity
8
0
100
AcDbLine
10
-1.7857142857142858
20
-13.392857142857144
30
0
11
-1.7857142857142858
21
-11.607142857142858
31
0
0
LINE
5
194
100
AcDbEntity
8
0
100
AcDbLine
10
7.1428571428571423
20
-11.607142857142858
30
0
11
7.1428571428571423
21
-13.392857142857144
31
0
0
LINE
5
195
100
AcDbEntity
8
0
100
AcDbLine
10
-2.6785714285714297
20
-3.5714285714285716
30
0
11
-3.5714285714285716
21
-4.4642857142857144
31
0
0
LINE
5
196
100
AcDbEntity
8
0
100
AcDbLine
10
-6.25
20
-7.1428571428571423
30
0
11
-7.1428571428571423
21
-8.0357142857142865
31
0
0
LINE
5
197
100
AcDbEntity
8
0
100
AcDbLine
10
-1.7857142857142858
20
-2.6785714285714297
30
0
11
-2.6785714285714297
21
-3.5714285714285716
31
0
0
LINE
5
198
100
AcDbEntity
8
0
100
AcDbLine
10
-7.1428571428571423
20
-8.0357142857142865
30
0
11
-8.0357142857142865
21
-8.9285714285714288
31
0
0
LINE
5
199
100
AcDbEntity
8
0
100
AcDbLine
10
6.25
20
5.3571428571428594
30
0
11
7.1428571428571423
21
6.25
31
0
0
LINE
5
200
100
AcDbEntity
8
0
100
AcDbLine
10
-10.714285714285719
20
-11.607142857142858
30
0
11
-11.607142857142858
21
-12.5
31
0
0
LINE
5
201
100
AcDbEntity
8
0
100
AcDbLine
10
-1.7857142857142858
20
-11.607142857142858
30
0
11
-1.7857142857142858
21
-9.8214285714285712
31
0
0
LINE
5
202
100
AcDbEntity
8
0
100
AcDbLine
10
-13.392857142857144
20
-12.5
30
0
11
-14.285714285714285
21
-13.392857142857144
31
0
0
LINE
5
203
100
AcDbEntity
8
0
100
AcDbLine
10
7.1428571428571423
20
-2.6785714285714297
30
0
11
7.1428571428571423
21
-4.4642857142857144
31
0
0
LINE
5
204
100
AcDbEntity
8
0
100
AcDbLine
10
9.8214285714285712
20
48.214285714285708
30
0
11
11.607142857142858
21
48.214285714285708
31
0
0
LINE
5
205
100
AcDbEntity
8
0
100
AcDbLine
10
4.4642857142857144
20
48.214285714285708
30
0
11
6.25
21
48.214285714285708
31
0
0
LINE
5
206
100
AcDbEntity
8
0
100
AcDbLine
10
-0.8928571428571429
20
48.214285714285708
30
0
11
0.8928571428571429
21
48.214285714285708
31
0
0
LINE
5
207
100
AcDbEntity
8
0
100
AcDbLine
10
-2.6785714285714297
20
48.214285714285708
30
0
11
-0.8928571428571429
21
48.214285714285708
31
0
0
LINE
5
208
100
AcDbEntity
8
0
100
AcDbLine
10
8.0357142857142865
20
48.214285714285708
30
0
11
9.8214285714285712
21
48.214285714285708
31
0
0
LINE
5
209
100
AcDbEntity
8
0
100
AcDbLine
10
6.25
20
48.214285714285708
30
0
11
8.0357142857142865
21
48.214285714285708
31
0
0
LINE
5
210
100
AcDbEntity
8
0
100
AcDbLine
10
-6.25
20
48.214285714285708
30
0
11
-4.4642857142857144
21
48.214285714285708
31
0
0
LINE
5
211
100
AcDbEntity
8
0
100
AcDbLine
10
-4.4642857142857144
20
48.214285714285708
30
0
11
-2.6785714285714297
21
48.214285714285708
31
0
0
LINE
5
212
100
AcDbEntity
8
0
100
AcDbLine
10
11.607142857142858
20
48.214285714285708
30
0
11
13.382193189304733
21
48.175895481497044
31
0
0
LINE
5
213
100
AcDbEntity
8
0
100
AcDbLine
10
0.8928571428571429
20
48.214285714285708
30
0
11
2.6785714285714297
21
48.214285714285708
31
0
0
LINE
5
214
100
AcDbEntity
8
0
100
AcDbLine
10
2.6785714285714297
20
48.214285714285708
30
0
11
4.4642857142857144
21
48.214285714285708
31
0
0
LINE
5
215
100
AcDbEntity
8
0
100
AcDbLine
10
-17.857142857142858
20
41.964285714285722
30
0
11
-16.964285714285715
21
42.857142857142861
31
0
0
LINE
5
216
100
AcDbEntity
8
0
100
AcDbLine
10
-15.178571428571427
20
44.642857142857153
30
0
11
-13.392857142857144
21
44.642857142857153
31
0
0
LINE
5
217
100
AcDbEntity
8
0
100
AcDbLine
10
-33.035714285714285
20
26.785714285714288
30
0
11
-32.142857142857146
21
27.678571428571431
31
0
0
LINE
5
218
100
AcDbEntity
8
0
100
AcDbLine
10
-34.821428571428584
20
23.214285714285715
30
0
11
-33.928571428571431
21
24.107142857142854
31
0
0
LINE
5
219
100
AcDbEntity
8
0
100
AcDbLine
10
-22.321428571428577
20
39.285714285714285
30
0
11
-21.428571428571431
21
40.178571428571431
31
0
0
LINE
5
220
100
AcDbEntity
8
0
100
AcDbLine
10
-30.357142857142854
20
31.25
30
0
11
-29.464285714285715
21
32.142857142857146
31
0
0
LINE
5
221
100
AcDbEntity
8
0
100
AcDbLine
10
-18.75
20
41.071428571428584
30
0
11
-17.857142857142858
21
41.964285714285722
31
0
0
LINE
5
222
100
AcDbEntity
8
0
100
AcDbLine
10
-11.607142857142858
20
46.428571428571431
30
0
11
-9.8214285714285712
21
46.428571428571431
31
0
0
LINE
5
223
100
AcDbEntity
8
0
100
AcDbLine
10
-16.071428571428573
20
43.75
30
0
11
-15.178571428571427
21
44.642857142857153
31
0
0
LINE
5
224
100
AcDbEntity
8
0
100
AcDbLine
10
-32.142857142857146
20
27.678571428571431
30
0
11
-31.25
21
28.571428571428569
31
0
0
LINE
5
225
100
AcDbEntity
8
0
100
AcDbLine
10
-20.535714285714292
20
41.071428571428584
30
0
11
-18.75
21
41.071428571428584
31
0
0
LINE
5
226
100
AcDbEntity
8
0
100
AcDbLine
10
-9.8214285714285712
20
46.428571428571431
30
0
11
-8.0357142857142865
21
46.428571428571431
31
0
0
LINE
5
227
100
AcDbEntity
8
0
100
AcDbLine
10
-33.928571428571431
20
24.107142857142854
30
0
11
-33.928571428571431
21
25.892857142857149
31
0
0
LINE
5
228
100
AcDbEntity
8
0
100
AcDbLine
10
-33.928571428571431
20
25.892857142857149
30
0
11
-33.035714285714285
21
26.785714285714288
31
0
0
LINE
5
229
100
AcDbEntity
8
0
100
AcDbLine
10
-35.714285714285715
20
22.321428571428577
30
0
11
-34.821428571428584
21
23.214285714285715
31
0
0
LINE
5
230
100
AcDbEntity
8
0
100
AcDbLine
10
-35.714285714285715
20
20.535714285714292
30
0
11
-35.714285714285715
21
22.321428571428577
31
0
0
LINE
5
231
100
AcDbEntity
8
0
100
AcDbLine
10
-8.0357142857142865
20
46.428571428571431
30
0
11
-7.1428571428571423
21
47.321428571428577
31
0
0
LINE
5
232
100
AcDbEntity
8
0
100
AcDbLine
10
-36.607142857142861
20
19.642857142857142
30
0
11
-35.714285714285715
21
20.535714285714292
31
0
0
LINE
5
233
100
AcDbEntity
8
0
100
AcDbLine
10
-7.1428571428571423
20
47.321428571428577
30
0
11
-6.25
21
48.214285714285708
31
0
0
LINE
5
234
100
AcDbEntity
8
0
100
AcDbLine
10
-13.392857142857144
20
44.642857142857153
30
0
11
-12.5
21
45.535714285714299
31
0
0
LINE
5
235
100
AcDbEntity
8
0
100
AcDbLine
10
-26.785714285714288
20
34.821428571428584
30
0
11
-25.892857142857149
21
35.714285714285715
31
0
0
LINE
5
236
100
AcDbEntity
8
0
100
AcDbLine
10
-25
20
36.607142857142861
30
0
11
-24.107142857142854
21
37.5
31
0
0
LINE
5
237
100
AcDbEntity
8
0
100
AcDbLine
10
-25.892857142857149
20
35.714285714285715
30
0
11
-25
21
36.607142857142861
31
0
0
LINE
5
238
100
AcDbEntity
8
0
100
AcDbLine
10
-30.357142857142854
20
29.464285714285715
30
0
11
-30.357142857142854
21
31.25
31
0
0
LINE
5
239
100
AcDbEntity
8
0
100
AcDbLine
10
-23.214285714285715
20
38.392857142857146
30
0
11
-22.321428571428577
21
39.285714285714285
31
0
0
LINE
5
240
100
AcDbEntity
8
0
100
AcDbLine
10
-29.464285714285715
20
32.142857142857146
30
0
11
-28.571428571428569
21
33.035714285714285
31
0
0
LINE
5
241
100
AcDbEntity
8
0
100
AcDbLine
10
-21.428571428571431
20
40.178571428571431
30
0
11
-20.535714285714292
21
41.071428571428584
31
0
0
LINE
5
242
100
AcDbEntity
8
0
100
AcDbLine
10
-24.107142857142854
20
37.5
30
0
11
-23.214285714285715
21
38.392857142857146
31
0
0
LINE
5
243
100
AcDbEntity
8
0
100
AcDbLine
10
-16.964285714285715
20
42.857142857142861
30
0
11
-16.071428571428573
21
43.75
31
0
0
LINE
5
244
100
AcDbEntity
8
0
100
AcDbLine
10
-31.25
20
28.571428571428569
30
0
11
-30.357142857142854
21
29.464285714285715
31
0
0
LINE
5
245
100
AcDbEntity
8
0
100
AcDbLine
10
-28.571428571428569
20
33.035714285714285
30
0
11
-27.678571428571431
21
33.928571428571431
31
0
0
LINE
5
246
100
AcDbEntity
8
0
100
AcDbLine
10
-27.678571428571431
20
33.928571428571431
30
0
11
-26.785714285714288
21
34.821428571428584
31
0
0
LINE
5
247
100
AcDbEntity
8
0
100
AcDbLine
10
-12.5
20
45.535714285714299
30
0
11
-11.607142857142858
21
46.428571428571431
31
0
0
LINE
5
248
100
AcDbEntity
8
0
100
AcDbLine
10
42.857142857142861
20
9.8214285714285712
30
0
11
41.964285714285722
21
10.714285714285719
31
0
0
LINE
5
249
100
AcDbEntity
8
0
100
AcDbLine
10
27.678571428571431
20
30.357142857142854
30
0
11
26.785714285714288
21
31.25
31
0
0
LINE
5
250
100
AcDbEntity
8
0
100
AcDbLine
10
41.071428571428584
20
13.392857142857144
30
0
11
40.178571428571431
21
14.285714285714285
31
0
0
LINE
5
251
100
AcDbEntity
8
0
100
AcDbLine
10
40.178571428571431
20
14.285714285714285
30
0
11
39.285714285714285
21
15.178571428571427
31
0
0
LINE
5
252
100
AcDbEntity
8
0
100
AcDbLine
10
22.321428571428577
20
33.928571428571431
30
0
11
20.535714285714292
21
33.928571428571431
31
0
0
LINE
5
253
100
AcDbEntity
8
0
100
AcDbLine
10
39.285714285714285
20
15.178571428571427
30
0
11
39.285714285714285
21
16.964285714285715
31
0
0
LINE
5
254
100
AcDbEntity
8
0
100
AcDbLine
10
42.857142857142861
20
6.25
30
0
11
42.857142857142861
21
8.0357142857142865
31
0
0
LINE
5
255
100
AcDbEntity
8
0
100
AcDbLine
10
32.142857142857146
20
25.892857142857149
30
0
11
31.25
21
26.785714285714288
31
0
0
LINE
5
256
100
AcDbEntity
8
0
100
AcDbLine
10
35.714285714285715
20
22.321428571428577
30
0
11
34.821428571428584
21
23.214285714285715
31
0
0
LINE
5
257
100
AcDbEntity
8
0
100
AcDbLine
10
29.464285714285715
20
28.571428571428569
30
0
11
28.571428571428569
21
29.464285714285715
31
0
0
LINE
5
258
100
AcDbEntity
8
0
100
AcDbLine
10
36.607142857142861
20
21.428571428571431
30
0
11
35.714285714285715
21
22.321428571428577
31
0
0
LINE
5
259
100
AcDbEntity
8
0
100
AcDbLine
10
30.357142857142854
20
27.678571428571431
30
0
11
29.464285714285715
21
28.571428571428569
31
0
0
LINE
5
260
100
AcDbEntity
8
0
100
AcDbLine
10
31.25
20
26.785714285714288
30
0
11
30.357142857142854
21
27.678571428571431
31
0
0
LINE
5
261
100
AcDbEntity
8
0
100
AcDbLine
10
23.214285714285715
20
33.035714285714285
30
0
11
22.321428571428577
21
33.928571428571431
31
0
0
LINE
5
262
100
AcDbEntity
8
0
100
AcDbLine
10
42.857142857142861
20
8.0357142857142865
30
0
11
42.857142857142861
21
9.8214285714285712
31
0
0
LINE
5
263
100
AcDbEntity
8
0
100
AcDbLine
10
26.785714285714288
20
31.25
30
0
11
25.892857142857149
21
32.142857142857146
31
0
0
LINE
5
264
100
AcDbEntity
8
0
100
AcDbLine
10
38.392857142857146
20
17.857142857142858
30
0
11
37.5
21
18.75
31
0
0
LINE
5
265
100
AcDbEntity
8
0
100
AcDbLine
10
37.5
20
18.75
30
0
11
37.5
21
20.535714285714292
31
0
0
LINE
5
266
100
AcDbEntity
8
0
100
AcDbLine
10
41.964285714285722
20
10.714285714285719
30
0
11
41.071428571428584
21
11.607142857142858
31
0
0
LINE
5
267
100
AcDbEntity
8
0
100
AcDbLine
10
43.75
20
5.3571428571428594
30
0
11
42.857142857142861
21
6.25
31
0
0
LINE
5
268
100
AcDbEntity
8
0
100
AcDbLine
10
28.571428571428569
20
29.464285714285715
30
0
11
27.678571428571431
21
30.357142857142854
31
0
0
LINE
5
269
100
AcDbEntity
8
0
100
AcDbLine
10
33.928571428571431
20
24.107142857142854
30
0
11
33.035714285714285
21
25
31
0
0
LINE
5
270
100
AcDbEntity
8
0
100
AcDbLine
10
33.035714285714285
20
25
30
0
11
32.142857142857146
21
25.892857142857149
31
0
0
LINE
5
271
100
AcDbEntity
8
0
100
AcDbLine
10
37.5
20
20.535714285714292
30
0
11
36.607142857142861
21
21.428571428571431
31
0
0
LINE
5
272
100
AcDbEntity
8
0
100
AcDbLine
10
39.285714285714285
20
16.964285714285715
30
0
11
38.392857142857146
21
17.857142857142858
31
0
0
LINE
5
273
100
AcDbEntity
8
0
100
AcDbLine
10
25.892857142857149
20
32.142857142857146
30
0
11
24.107142857142854
21
32.142857142857146
31
0
0
LINE
5
274
100
AcDbEntity
8
0
100
AcDbLine
10
41.071428571428584
20
11.607142857142858
30
0
11
41.071428571428584
21
13.392857142857144
31
0
0
LINE
5
275
100
AcDbEntity
8
0
100
AcDbLine
10
24.107142857142854
20
32.142857142857146
30
0
11
23.214285714285715
21
33.035714285714285
31
0
0
LINE
5
276
100
AcDbEntity
8
0
100
AcDbLine
10
-8.0357142857142865
20
30.357142857142854
30
0
11
-9.8214285714285712
21
30.357142857142854
31
0
0
LINE
5
277
100
AcDbEntity
8
0
100
AcDbLine
10
-11.607142857142858
20
28.571428571428569
30
0
11
-13.392857142857144
21
28.571428571428569
31
0
0
LINE
5
278
100
AcDbEntity
8
0
100
AcDbLine
10
18.75
20
33.928571428571431
30
0
11
16.964285714285715
21
33.928571428571431
31
0
0
LINE
5
279
100
AcDbEntity
8
0
100
AcDbLine
10
10.714285714285719
20
33.035714285714285
30
0
11
9.8214285714285712
21
32.142857142857146
31
0
0
LINE
5
280
100
AcDbEntity
8
0
100
AcDbLine
10
16.964285714285715
20
33.928571428571431
30
0
11
15.178571428571427
21
33.928571428571431
31
0
0
LINE
5
281
100
AcDbEntity
8
0
100
AcDbLine
10
-7.1428571428571423
20
31.25
30
0
11
-8.0357142857142865
21
30.357142857142854
31
0
0
LINE
5
282
100
AcDbEntity
8
0
100
AcDbLine
10
4.4642857142857144
20
32.142857142857146
30
0
11
2.6785714285714297
21
32.142857142857146
31
0
0
LINE
5
283
100
AcDbEntity
8
0
100
AcDbLine
10
13.392857142857144
20
33.928571428571431
30
0
11
11.607142857142858
21
33.928571428571431
31
0
0
LINE
5
284
100
AcDbEntity
8
0
100
AcDbLine
10
-9.8214285714285712
20
30.357142857142854
30
0
11
-10.714285714285719
21
29.464285714285715
31
0
0
LINE
5
285
100
AcDbEntity
8
0
100
AcDbLine
10
15.178571428571427
20
33.928571428571431
30
0
11
13.392857142857144
21
33.928571428571431
31
0
0
LINE
5
286
100
AcDbEntity
8
0
100
AcDbLine
10
-6.25
20
32.142857142857146
30
0
11
-7.1428571428571423
21
31.25
31
0
0
LINE
5
287
100
AcDbEntity
8
0
100
AcDbLine
10
8.0357142857142865
20
32.142857142857146
30
0
11
6.25
21
32.142857142857146
31
0
0
LINE
5
288
100
AcDbEntity
8
0
100
AcDbLine
10
11.607142857142858
20
33.928571428571431
30
0
11
10.714285714285719
21
33.035714285714285
31
0
0
LINE
5
289
100
AcDbEntity
8
0
100
AcDbLine
10
-2.6785714285714297
20
32.142857142857146
30
0
11
-4.4642857142857144
21
32.142857142857146
31
0
0
LINE
5
290
100
AcDbEntity
8
0
100
AcDbLine
10
2.6785714285714297
20
32.142857142857146
30
0
11
0.89285714285714279
21
32.142857142857146
31
0
0
LINE
5
291
100
AcDbEntity
8
0
100
AcDbLine
10
6.25
20
32.142857142857146
30
0
11
4.4642857142857144
21
32.142857142857146
31
0
0
LINE
5
292
100
AcDbEntity
8
0
100
AcDbLine
10
-0.8928571428571429
20
32.142857142857146
30
0
11
-2.6785714285714297
21
32.142857142857146
31
0
0
LINE
5
293
100
AcDbEntity
8
0
100
AcDbLine
10
20.535714285714292
20
33.928571428571431
30
0
11
18.75
21
33.928571428571431
31
0
0
LINE
5
294
100
AcDbEntity
8
0
100
AcDbLine
10
-4.4642857142857144
20
32.142857142857146
30
0
11
-6.25
21
32.142857142857146
31
0
0
LINE
5
295
100
AcDbEntity
8
0
100
AcDbLine
10
-10.714285714285719
20
29.464285714285715
30
0
11
-11.607142857142858
21
28.571428571428569
31
0
0
LINE
5
296
100
AcDbEntity
8
0
100
AcDbLine
10
9.8214285714285712
20
32.142857142857146
30
0
11
8.0357142857142865
21
32.142857142857146
31
0
0
LINE
5
297
100
AcDbEntity
8
0
100
AcDbLine
10
0.89285714285714279
20
32.142857142857146
30
0
11
-0.8928571428571429
21
32.142857142857146
31
0
0
LINE
5
298
100
AcDbEntity
8
0
100
AcDbLine
10
-24.107142857142854
20
-3.5714285714285716
30
0
11
-23.214285714285715
21
-4.4642857142857144
31
0
0
LINE
5
299
100
AcDbEntity
8
0
100
AcDbLine
10
0
20
8.0357142857142865
30
0
11
0
21
6.25
31
0
0
LINE
5
300
100
AcDbEntity
8
0
100
AcDbLine
10
-6.25
20
-1.7857142857142858
30
0
11
-4.4642857142857144
21
-1.7857142857142858
31
0
0
LINE
5
301
100
AcDbEntity
8
0
100
AcDbLine
10
-11.607142857142858
20
-1.7857142857142858
30
0
11
-9.8214285714285712
21
-1.7857142857142858
31
0
0
LINE
5
302
100
AcDbEntity
8
0
100
AcDbLine
10
0
20
0.8928571428571429
30
0
11
0.8928571428571429
21
0
31
0
0
LINE
5
303
100
AcDbEntity
8
0
100
AcDbLine
10
-25
20
6.25
30
0
11
-25
21
4.4642857142857144
31
0
0
LINE
5
304
100
AcDbEntity
8
0
100
AcDbLine
10
-2.6785714285714297
20
8.9285714285714288
30
0
11
-1.7857142857142858
21
9.8214285714285712
31
0
0
LINE
5
305
100
AcDbEntity
8
0
100
AcDbLine
10
-3.5714285714285716
20
6.25
30
0
11
-3.5714285714285716
21
8.0357142857142865
31
0
0
LINE
5
306
100
AcDbEntity
8
0
100
AcDbLine
10
-23.214285714285715
20
8.0357142857142865
30
0
11
-24.107142857142854
21
7.1428571428571423
31
0
0
LINE
5
307
100
AcDbEntity
8
0
100
AcDbLine
10
0
20
4.4642857142857144
30
0
11
0
21
2.6785714285714297
31
0
0
LINE
5
308
100
AcDbEntity
8
0
100
AcDbLine
10
3.5714285714285716
20
2.6785714285714297
30
0
11
4.4642857142857144
21
3.5714285714285716
31
0
0
LINE
5
309
100
AcDbEntity
8
0
100
AcDbLine
10
-20.535714285714292
20
-8.9285714285714288
30
0
11
-19.642857142857142
21
-9.8214285714285712
31
0
0
LINE
5
310
100
AcDbEntity
8
0
100
AcDbLine
10
-18.75
20
-10.714285714285719
30
0
11
-16.964285714285715
21
-10.714285714285719
31
0
0
LINE
5
311
100
AcDbEntity
8
0
100
AcDbLine
10
-15.178571428571427
20
26.785714285714288
30
0
11
-16.071428571428573
21
25.892857142857149
31
0
0
LINE
5
312
100
AcDbEntity
8
0
100
AcDbLine
10
-21.428571428571431
20
-8.0357142857142865
30
0
11
-20.535714285714292
21
-8.9285714285714288
31
0
0
LINE
5
313
100
AcDbEntity
8
0
100
AcDbLine
10
-13.392857142857144
20
28.571428571428569
30
0
11
-14.285714285714285
21
27.678571428571431
31
0
0
LINE
5
314
100
AcDbEntity
8
0
100
AcDbLine
10
-5.3571428571428594
20
2.6785714285714297
30
0
11
-5.3571428571428594
21
4.4642857142857144
31
0
0
LINE
5
315
100
AcDbEntity
8
0
100
AcDbLine
10
-4.4642857142857144
20
1.7857142857142858
30
0
11
-5.3571428571428594
21
2.6785714285714297
31
0
0
LINE
5
316
100
AcDbEntity
8
0
100
AcDbLine
10
-23.214285714285715
20
-6.25
30
0
11
-22.321428571428577
21
-7.1428571428571423
31
0
0
LINE
5
317
100
AcDbEntity
8
0
100
AcDbLine
10
-0.8928571428571429
20
10.714285714285719
30
0
11
0
21
9.8214285714285712
31
0
0
LINE
5
318
100
AcDbEntity
8
0
100
AcDbLine
10
5.3571428571428594
20
4.4642857142857144
30
0
11
6.25
21
5.3571428571428594
31
0
0
LINE
5
319
100
AcDbEntity
8
0
100
AcDbLine
10
-16.964285714285715
20
-10.714285714285719
30
0
11
-16.071428571428573
21
-9.8214285714285712
31
0
0
LINE
5
320
100
AcDbEntity
8
0
100
AcDbLine
10
-16.071428571428573
20
-8.0357142857142865
30
0
11
-16.071428571428573
21
-6.25
31
0
0
LINE
5
321
100
AcDbEntity
8
0
100
AcDbLine
10
-16.071428571428573
20
-9.8214285714285712
30
0
11
-16.071428571428573
21
-8.0357142857142865
31
0
0
LINE
5
322
100
AcDbEntity
8
0
100
AcDbLine
10
-1.7857142857142858
20
0.8928571428571429
30
0
11
-2.6785714285714297
21
1.7857142857142858
31
0
0
LINE
5
323
100
AcDbEntity
8
0
100
AcDbLine
10
-18.75
20
19.642857142857142
30
0
11
-19.642857142857142
21
18.75
31
0
0
LINE
5
324
100
AcDbEntity
8
0
100
AcDbLine
10
-1.7857142857142858
20
9.8214285714285712
30
0
11
-0.8928571428571429
21
10.714285714285719
31
0
0
LINE
5
325
100
AcDbEntity
8
0
100
AcDbLine
10
-21.428571428571431
20
13.392857142857144
30
0
11
-22.321428571428577
21
12.5
31
0
0
LINE
5
326
100
AcDbEntity
8
0
100
AcDbLine
10
-5.3571428571428594
20
4.4642857142857144
30
0
11
-4.4642857142857144
21
5.3571428571428594
31
0
0
LINE
5
327
100
AcDbEntity
8
0
100
AcDbLine
10
4.4642857142857144
20
3.5714285714285716
30
0
11
5.3571428571428594
21
4.4642857142857144
31
0
0
LINE
5
328
100
AcDbEntity
8
0
100
AcDbLine
10
-17.857142857142858
20
20.535714285714292
30
0
11
-18.75
21
19.642857142857142
31
0
0
LINE
5
329
100
AcDbEntity
8
0
100
AcDbLine
10
-9.8214285714285712
20
-1.7857142857142858
30
0
11
-8.0357142857142865
21
-1.7857142857142858
31
0
0
LINE
5
330
100
AcDbEntity
8
0
100
AcDbLine
10
-25
20
2.6785714285714297
30
0
11
-25
21
0.89285714285714279
31
0
0
LINE
5
331
100
AcDbEntity
8
0
100
AcDbLine
10
0
20
9.8214285714285712
30
0
11
0
21
8.0357142857142865
31
0
0
LINE
5
332
100
AcDbEntity
8
0
100
AcDbLine
10
-2.6785714285714297
20
1.7857142857142858
30
0
11
-4.4642857142857144
21
1.7857142857142858
31
0
0
LINE
5
333
100
AcDbEntity
8
0
100
AcDbLine
10
-20.535714285714292
20
16.071428571428573
30
0
11
-21.428571428571431
21
15.178571428571427
31
0
0
LINE
5
334
100
AcDbEntity
8
0
100
AcDbLine
10
-16.071428571428573
20
-4.4642857142857144
30
0
11
-15.178571428571427
21
-3.5714285714285716
31
0
0
LINE
5
335
100
AcDbEntity
8
0
100
AcDbLine
10
-8.0357142857142865
20
-1.7857142857142858
30
0
11
-6.25
21
-1.7857142857142858
31
0
0
LINE
5
336
100
AcDbEntity
8
0
100
AcDbLine
10
-22.321428571428577
20
12.5
30
0
11
-23.214285714285715
21
11.607142857142858
31
0
0
LINE
5
337
100
AcDbEntity
8
0
100
AcDbLine
10
-25
20
4.4642857142857144
30
0
11
-25
21
2.6785714285714297
31
0
0
LINE
5
338
100
AcDbEntity
8
0
100
AcDbLine
10
-2.6785714285714297
20
0
30
0
11
-1.7857142857142858
21
0.8928571428571429
31
0
0
LINE
5
339
100
AcDbEntity
8
0
100
AcDbLine
10
0.8928571428571429
20
0
30
0
11
1.7857142857142858
21
0.8928571428571429
31
0
0
LINE
5
340
100
AcDbEntity
8
0
100
AcDbLine
10
-4.4642857142857144
20
5.3571428571428594
30
0
11
-3.5714285714285716
21
6.25
31
0
0
LINE
5
341
100
AcDbEntity
8
0
100
AcDbLine
10
-4.4642857142857144
20
-1.7857142857142858
30
0
11
-3.5714285714285716
21
-0.8928571428571429
31
0
0
LINE
5
342
100
AcDbEntity
8
0
100
AcDbLine
10
2.6785714285714297
20
1.7857142857142858
30
0
11
3.5714285714285716
21
2.6785714285714297
31
0
0
LINE
5
343
100
AcDbEntity
8
0
100
AcDbLine
10
-23.214285714285715
20
-4.4642857142857144
30
0
11
-23.214285714285715
21
-6.25
31
0
0
LINE
5
344
100
AcDbEntity
8
0
100
AcDbLine
10
-19.642857142857142
20
18.75
30
0
11
-19.642857142857142
21
16.964285714285715
31
0
0
LINE
5
345
100
AcDbEntity
8
0
100
AcDbLine
10
-19.642857142857142
20
-9.8214285714285712
30
0
11
-18.75
21
-10.714285714285719
31
0
0
LINE
5
346
100
AcDbEntity
8
0
100
AcDbLine
10
-16.071428571428573
20
24.107142857142854
30
0
11
-16.964285714285715
21
23.214285714285715
31
0
0
LINE
5
347
100
AcDbEntity
8
0
100
AcDbLine
10
-19.642857142857142
20
16.964285714285715
30
0
11
-20.535714285714292
21
16.071428571428573
31
0
0
LINE
5
348
100
AcDbEntity
8
0
100
AcDbLine
10
-25
20
0.89285714285714279
30
0
11
-25
21
-0.8928571428571429
31
0
0
LINE
5
349
100
AcDbEntity
8
0
100
AcDbLine
10
-13.392857142857144
20
-1.7857142857142858
30
0
11
-11.607142857142858
21
-1.7857142857142858
31
0
0
LINE
5
350
100
AcDbEntity
8
0
100
AcDbLine
10
1.7857142857142858
20
0.8928571428571429
30
0
11
2.6785714285714297
21
1.7857142857142858
31
0
0
LINE
5
351
100
AcDbEntity
8
0
100
AcDbLine
10
-3.5714285714285716
20
-0.8928571428571429
30
0
11
-2.6785714285714297
21
0
31
0
0
LINE
5
352
100
AcDbEntity
8
0
100
AcDbLine
10
-14.285714285714285
20
-2.6785714285714297
30
0
11
-13.392857142857144
21
-1.7857142857142858
31
0
0
LINE
5
353
100
AcDbEntity
8
0
100
AcDbLine
10
-16.071428571428573
20
-6.25
30
0
11
-16.071428571428573
21
-4.4642857142857144
31
0
0
LINE
5
354
100
AcDbEntity
8
0
100
AcDbLine
10
-16.964285714285715
20
23.214285714285715
30
0
11
-17.857142857142858
21
22.321428571428577
31
0
0
LINE
5
355
100
AcDbEntity
8
0
100
AcDbLine
10
-25
20
-0.8928571428571429
30
0
11
-25
21
-2.6785714285714297
31
0
0
LINE
5
356
100
AcDbEntity
8
0
100
AcDbLine
10
0
20
6.25
30
0
11
0
21
4.4642857142857144
31
0
0
LINE
5
357
100
AcDbEntity
8
0
100
AcDbLine
10
0
20
2.6785714285714297
30
0
11
0
21
0.8928571428571429
31
0
0
LINE
5
358
100
AcDbEntity
8
0
100
AcDbLine
10
-23.214285714285715
20
11.607142857142858
30
0
11
-23.214285714285715
21
9.8214285714285712
31
0
0
LINE
5
359
100
AcDbEntity
8
0
100
AcDbLine
10
-16.071428571428573
20
25.892857142857149
30
0
11
-16.071428571428573
21
24.107142857142854
31
0
0
LINE
5
360
100
AcDbEntity
8
0
100
AcDbLine
10
-24.107142857142854
20
7.1428571428571423
30
0
11
-25
21
6.25
31
0
0
LINE
5
361
100
AcDbEntity
8
0
100
AcDbLine
10
-23.214285714285715
20
9.8214285714285712
30
0
11
-23.214285714285715
21
8.0357142857142865
31
0
0
LINE
5
362
100
AcDbEntity
8
0
100
AcDbLine
10
-17.857142857142858
20
22.321428571428577
30
0
11
-17.857142857142858
21
20.535714285714292
31
0
0
LINE
5
363
100
AcDbEntity
8
0
100
AcDbLine
10
-21.428571428571431
20
15.178571428571427
30
0
11
-21.428571428571431
21
13.392857142857144
31
0
0
LINE
5
364
100
AcDbEntity
8
0
100
AcDbLine
10
-3.5714285714285716
20
8.0357142857142865
30
0
11
-2.6785714285714297
21
8.9285714285714288
31
0
0
LINE
5
365
100
AcDbEntity
8
0
100
AcDbLine
10
-25
20
-2.6785714285714297
30
0
11
-24.107142857142854
21
-3.5714285714285716
31
0
0
LINE
5
366
100
AcDbEntity
8
0
100
AcDbLine
10
-14.285714285714285
20
27.678571428571431
30
0
11
-15.178571428571427
21
26.785714285714288
31
0
0
LINE
5
367
100
AcDbEntity
8
0
100
AcDbLine
10
-15.178571428571427
20
-3.5714285714285716
30
0
11
-14.285714285714285
21
-2.6785714285714297
31
0
0
LINE
5
368
100
AcDbEntity
8
0
100
AcDbLine
10
-22.321428571428577
20
-7.1428571428571423
30
0
11
-21.428571428571431
21
-8.0357142857142865
31
0
0
LINE
5
369
100
AcDbEntity
8
0
100
AcDbLine
10
38.392857142857146
20
-30.357142857142854
30
0
11
39.285714285714285
21
-29.464285714285715
31
0
0
LINE
5
370
100
AcDbEntity
8
0
100
AcDbLine
10
44.642857142857153
20
0.8928571428571429
30
0
11
44.642857142857153
21
2.6785714285714297
31
0
0
LINE
5
371
100
AcDbEntity
8
0
100
AcDbLine
10
41.071428571428584
20
-25.892857142857149
30
0
11
41.071428571428584
21
-24.107142857142854
31
0
0
LINE
5
372
100
AcDbEntity
8
0
100
AcDbLine
10
46.428571428571431
20
-9.8214285714285712
30
0
11
46.428571428571431
21
-8.0357142857142865
31
0
0
LINE
5
373
100
AcDbEntity
8
0
100
AcDbLine
10
41.071428571428584
20
-24.107142857142854
30
0
11
41.964285714285722
21
-23.214285714285715
31
0
0
LINE
5
374
100
AcDbEntity
8
0
100
AcDbLine
10
42.857142857142861
20
-22.321428571428577
30
0
11
42.857142857142861
21
-20.535714285714292
31
0
0
LINE
5
375
100
AcDbEntity
8
0
100
AcDbLine
10
44.642857142857153
20
-13.392857142857144
30
0
11
45.535714285714299
21
-12.5
31
0
0
LINE
5
376
100
AcDbEntity
8
0
100
AcDbLine
10
37.5
20
-31.25
30
0
11
38.392857142857146
21
-30.357142857142854
31
0
0
LINE
5
377
100
AcDbEntity
8
0
100
AcDbLine
10
44.642857142857153
20
4.4642857142857144
30
0
11
43.75
21
5.3571428571428594
31
0
0
LINE
5
378
100
AcDbEntity
8
0
100
AcDbLine
10
44.642857142857153
20
-15.178571428571427
30
0
11
44.642857142857153
21
-13.392857142857144
31
0
0
LINE
5
379
100
AcDbEntity
8
0
100
AcDbLine
10
39.285714285714285
20
-29.464285714285715
30
0
11
39.285714285714285
21
-27.678571428571431
31
0
0
LINE
5
380
100
AcDbEntity
8
0
100
AcDbLine
10
44.642857142857153
20
-0.8928571428571429
30
0
11
44.642857142857153
21
0.8928571428571429
31
0
0
LINE
5
381
100
AcDbEntity
8
0
100
AcDbLine
10
44.642857142857153
20
-16.964285714285715
30
0
11
44.642857142857153
21
-15.178571428571427
31
0
0
LINE
5
382
100
AcDbEntity
8
0
100
AcDbLine
10
45.535714285714299
20
-3.5714285714285716
30
0
11
44.642857142857153
21
-2.6785714285714297
31
0
0
LINE
5
383
100
AcDbEntity
8
0
100
AcDbLine
10
35.714285714285715
20
-34.821428571428584
30
0
11
35.714285714285715
21
-33.035714285714285
31
0
0
LINE
5
384
100
AcDbEntity
8
0
100
AcDbLine
10
46.428571428571431
20
-11.607142857142858
30
0
11
46.428571428571431
21
-9.8214285714285712
31
0
0
LINE
5
385
100
AcDbEntity
8
0
100
AcDbLine
10
44.642857142857153
20
2.6785714285714297
30
0
11
44.642857142857153
21
4.4642857142857144
31
0
0
LINE
5
386
100
AcDbEntity
8
0
100
AcDbLine
10
44.642857142857153
20
-18.75
30
0
11
44.642857142857153
21
-16.964285714285715
31
0
0
LINE
5
387
100
AcDbEntity
8
0
100
AcDbLine
10
41.964285714285722
20
-23.214285714285715
30
0
11
42.857142857142861
21
-22.321428571428577
31
0
0
LINE
5
388
100
AcDbEntity
8
0
100
AcDbLine
10
35.714285714285715
20
-33.035714285714285
30
0
11
36.607142857142861
21
-32.142857142857146
31
0
0
LINE
5
389
100
AcDbEntity
8
0
100
AcDbLine
10
46.428571428571431
20
-8.0357142857142865
30
0
11
46.428571428571431
21
-6.25
31
0
0
LINE
5
390
100
AcDbEntity
8
0
100
AcDbLine
10
42.857142857142861
20
-20.535714285714292
30
0
11
43.75
21
-19.642857142857142
31
0
0
LINE
5
391
100
AcDbEntity
8
0
100
AcDbLine
10
46.428571428571431
20
-4.4642857142857144
30
0
11
45.535714285714299
21
-3.5714285714285716
31
0
0
LINE
5
392
100
AcDbEntity
8
0
100
AcDbLine
10
39.285714285714285
20
-27.678571428571431
30
0
11
40.178571428571431
21
-26.785714285714288
31
0
0
LINE
5
393
100
AcDbEntity
8
0
100
AcDbLine
10
45.535714285714299
20
-12.5
30
0
11
46.428571428571431
21
-11.607142857142858
31
0
0
LINE
5
394
100
AcDbEntity
8
0
100
AcDbLine
10
44.642857142857153
20
-2.6785714285714297
30
0
11
44.642857142857153
21
-0.8928571428571429
31
0
0
LINE
5
395
100
AcDbEntity
8
0
100
AcDbLine
10
36.607142857142861
20
-32.142857142857146
30
0
11
37.5
21
-31.25
31
0
0
LINE
5
396
100
AcDbEntity
8
0
100
AcDbLine
10
43.75
20
-19.642857142857142
30
0
11
44.642857142857153
21
-18.75
31
0
0
LINE
5
397
100
AcDbEntity
8
0
100
AcDbLine
10
46.428571428571431
20
-6.25
30
0
11
46.428571428571431
21
-4.4642857142857144
31
0
0
LINE
5
398
100
AcDbEntity
8
0
100
AcDbLine
10
40.178571428571431
20
-26.785714285714288
30
0
11
41.071428571428584
21
-25.892857142857149
31
0
0
ENDSEC
0
SECTION
2
OBJECTS
0
DICTIONARY
5
C
100
AcDbDictionary
3
ACAD_GROUP
350
D
3
ACAD_MLINESTYLE
350
17
0
DICTIONARY
5
D
100
AcDbDictionary
0
DICTIONARY
5
1A
330
C
100
AcDbDictionary
0
DICTIONARY
5
17
100
AcDbDictionary
0
ENDSEC
0
EOF
