0
SECTION
2
HEADER
9
$INSUNITS
70
4
9
$ACADVER
1
AC1014
9
$HANDSEED
5
FFFF
0
ENDSEC
0
SECTION
2
TABLES
0
TABLE
2
VPORT
5
8
100
AcDbSymbolTable
0
ENDTAB
0
TABLE
2
LTYPE
5
5
100
AcDbSymbolTable
0
LTYPE
5
14
100
AcDbSymbolTableRecord
100
AcDbLinetypeTableRecord
2
BYBLOCK
70
0
0
LTYPE
5
15
100
AcDbSymbolTableRecord
100
AcDbLinetypeTableRecord
2
BYLAYER
70
0
0
LTYPE
5
16
100
AcDbSymbolTableRecord
100
AcDbLinetypeTableRecord
2
DASHED
70
0
3
Dashed __ __ __ __ __ __ __ __ __ __ __ __ __ _
72
65
73
2
40
0.75
49
0.5
74
0
49
-0.25
74
0
0
ENDTAB
0
TABLE
2
LAYER
5
2
100
AcDbSymbolTable
70
2
0
LAYER
5
50
100
AcDbSymbolTableRecord
100
AcDbLayerTableRecord
2
0
70
0
62
7
6
CONTINUOUS
0
ENDTAB
0
TABLE
2
STYLE
5
3
100
AcDbSymbolTable
70
1
0
STYLE
5
11
100
AcDbSymbolTableRecord
100
AcDbTextStyleTableRecord
2
STANDARD
70
0
0
ENDTAB
0
TABLE
2
VIEW
5
6
100
AcDbSymbolTable
70
0
0
ENDTAB
0
TABLE
2
UCS
5
7
100
AcDbSymbolTable
70
0
0
ENDTAB
0
TABLE
2
APPID
5
9
100
AcDbSymbolTable
70
2
0
APPID
5
12
100
AcDbSymbolTableRecord
100
AcDbRegAppTableRecord
2
ACAD
70
0
0
ENDTAB
0
TABLE
2
DIMSTYLE
5
A
100
AcDbSymbolTable
70
1
0
ENDTAB
0
TABLE
2
BLOCK_RECORD
5
1
100
AcDbSymbolTable
70
1
0
BLOCK_RECORD
5
1F
100
AcDbSymbolTableRecord
100
AcDbBlockTableRecord
2
*MODEL_SPACE
0
BLOCK_RECORD
5
1B
100
AcDbSymbolTableRecord
100
AcDbBlockTableRecord
2
*PAPER_SPACE
0
ENDTAB
0
ENDSEC
0
SECTION
2
BLOCKS
0
BLOCK
5
20
100
AcDbEntity
100
AcDbBlockBegin
2
*MODEL_SPACE
0
ENDBLK
5
21
100
AcDbEntity
100
AcDbBlockEnd
0
BLOCK
5
1C
100
AcDbEntity
100
AcDbBlockBegin
2
*PAPER_SPACE
0
ENDBLK
5
1D
100
AcDbEntity
100
AcDbBlockEnd
0
ENDSEC
0
SECTION
2
ENTITIES
0
POINT
5
100
100
AcDbEntity
8
0
100
AcDbPoint
10
2.9802322831784522e-08
20
0
30
0
0
LWPOLYLINE
5
101
100
AcDbEntity
8
0
100
AcDbPolyline
90
14
70
1
43
0.0
10
-19.023335117533797
20
7.3770148275269527
10
-21.000000283122063
20
6.6613381477509392e-15
10
-18.18653372067136
20
-10.500000156462184
10
-13.329768685678321
20
-15.356765191455226
10
-9.5757316034280677
20
-8.8601459522885087
10
-8.1282576872777117
20
-5.355735418450803
10
-4.555633544542486
20
-2.7401689653448562
10
-1.0078674164778989
20
-1.4629731592416046
10
0.50000003725290343
20
1.0000000149011612
10
1.9309607943108764
20
3.8535621519712118
10
1.9309607943108764
20
6.7907403361609697
10
-0.30096711712523039
20
8.540675412983628
10
-5.5793651749998823
20
9.41295233405123
10
-9.0000001043081284
20
8.0000001192092896
0
LWPOLYLINE
5
102
100
AcDbEntity
8
0
100
AcDbPolyline
90
17
70
1
43
0.0
10
17.11804816299589
20
-11.568485773742307
10
18.18653378027599
20
-10.500000156462207
10
21.000000342726707
20
-1.8873791418627661e-14
10
18.186533780276008
20
10.500000156462173
10
10.500000186264533
20
18.186533750473664
10
8.4380457207543209
20
18.739032784336874
10
7.3211216364144054
20
16.691338629713691
10
5.5770239479897636
20
13.493826200935183
10
3.8038579647580386
20
9.1335819798735738
10
3.3416067214472434
20
5.7325914874455242
10
4.6273134403793295
20
4.337313336705809
10
4.6273134403793295
20
0.55912519979887221
10
3.3416067214472434
20
-0.3050383325981032
10
0.19682256712362012
20
-0.91459877530156164
10
1.6907811862788091
20
-3.1373176964836724
10
4.4236323188797648
20
-4.9227804364496297
10
10.581656871007251
20
-7.947135689861355
0
ENDSEC
0
SECTION
2
OBJECTS
0
DICTIONARY
5
C
100
AcDbDictionary
3
ACAD_GROUP
350
D
3
ACAD_MLINESTYLE
350
17
0
DICTIONARY
5
D
100
AcDbDictionary
0
DICTIONARY
5
1A
330
C
100
AcDbDictionary
0
DICTIONARY
5
17
100
AcDbDictionary
0
ENDSEC
0
EOF
